<svg width="20" height="20" viewBox="0 0 20 20" fill="none" xmlns="http://www.w3.org/2000/svg">
<path fill-rule="evenodd" clip-rule="evenodd" d="M4.16667 14.167C3.24619 14.167 2.5 13.4208 2.5 12.5003C2.5 11.5799 3.24619 10.8337 4.16667 10.8337C5.08714 10.8337 5.83333 11.5799 5.83333 12.5003C5.83333 13.4208 5.08714 14.167 4.16667 14.167ZM10 14.167C9.07953 14.167 8.33333 13.4208 8.33333 12.5003C8.33333 11.5799 9.07953 10.8337 10 10.8337C10.9205 10.8337 11.6667 11.5799 11.6667 12.5003C11.6667 13.4208 10.9205 14.167 10 14.167ZM15.8333 14.167C14.9129 14.167 14.1667 13.4208 14.1667 12.5003C14.1667 11.5799 14.9129 10.8337 15.8333 10.8337C16.7538 10.8337 17.5 11.5799 17.5 12.5003C17.5 13.4208 16.7538 14.167 15.8333 14.167Z" fill="#979798"/>
<path fill-rule="evenodd" clip-rule="evenodd" d="M4.16667 9.16699C3.24619 9.16699 2.5 8.4208 2.5 7.50033C2.5 6.57985 3.24619 5.83366 4.16667 5.83366C5.08714 5.83366 5.83333 6.57985 5.83333 7.50033C5.83333 8.4208 5.08714 9.16699 4.16667 9.16699ZM10 9.16699C9.07953 9.16699 8.33333 8.4208 8.33333 7.50033C8.33333 6.57985 9.07953 5.83366 10 5.83366C10.9205 5.83366 11.6667 6.57985 11.6667 7.50033C11.6667 8.4208 10.9205 9.16699 10 9.16699ZM15.8333 9.16699C14.9129 9.16699 14.1667 8.4208 14.1667 7.50033C14.1667 6.57985 14.9129 5.83366 15.8333 5.83366C16.7538 5.83366 17.5 6.57985 17.5 7.50033C17.5 8.4208 16.7538 9.16699 15.8333 9.16699Z" fill="#979798"/>
</svg>
