<svg width="216" height="48" viewBox="0 0 216 48" fill="none" xmlns="http://www.w3.org/2000/svg">
<path opacity="0.8" d="M20.5333 31.3333C28.6335 31.3333 35.2 24.7668 35.2 16.6667C35.2 8.56649 28.6335 2 20.5333 2H0V31.3333H20.5333Z" fill="white"/>
<path opacity="0.6" d="M0 2L35.2 46H11.7333L0 31.3333V2Z" fill="white"/>
<path d="M23.2637 31.0796C22.3791 31.2462 21.4664 31.3333 20.5333 31.3333H0V2L23.2637 31.0796Z" fill="white"/>
<path d="M59.3397 33.28C57.2864 33.28 55.5224 32.8693 54.0477 32.048C52.5917 31.208 51.4717 30.032 50.6877 28.52C49.9037 26.9893 49.5117 25.188 49.5117 23.116C49.5117 21.044 49.9037 19.252 50.6877 17.74C51.4717 16.228 52.5917 15.0613 54.0477 14.24C55.5224 13.4 57.2864 12.98 59.3397 12.98C60.6651 12.98 61.9157 13.1853 63.0917 13.596C64.2864 14.0066 65.2664 14.5946 66.0317 15.36L64.8557 18.216C64.0157 17.5066 63.1571 16.9933 62.2797 16.676C61.4024 16.34 60.4597 16.172 59.4517 16.172C57.4544 16.172 55.9331 16.7786 54.8877 17.992C53.8424 19.1866 53.3197 20.8946 53.3197 23.116C53.3197 25.3373 53.8424 27.0546 54.8877 28.268C55.9331 29.4813 57.4544 30.088 59.4517 30.088C60.4597 30.088 61.4024 29.9293 62.2797 29.612C63.1571 29.276 64.0157 28.7533 64.8557 28.044L66.0317 30.9C65.2664 31.6466 64.2864 32.2346 63.0917 32.664C61.9157 33.0746 60.6651 33.28 59.3397 33.28Z" fill="white"/>
<path d="M74.0832 33.28C72.6646 33.28 71.4326 32.9906 70.3872 32.412C69.3419 31.8333 68.5299 31.012 67.9512 29.948C67.3726 28.8653 67.0832 27.596 67.0832 26.14C67.0832 24.684 67.3726 23.424 67.9512 22.36C68.5299 21.296 69.3419 20.4746 70.3872 19.896C71.4326 19.3173 72.6646 19.028 74.0832 19.028C75.5019 19.028 76.7339 19.3173 77.7792 19.896C78.8246 20.4746 79.6366 21.296 80.2152 22.36C80.7939 23.424 81.0832 24.684 81.0832 26.14C81.0832 27.596 80.7939 28.8653 80.2152 29.948C79.6366 31.012 78.8246 31.8333 77.7792 32.412C76.7339 32.9906 75.5019 33.28 74.0832 33.28ZM74.0832 30.62C75.1286 30.62 75.9686 30.2466 76.6032 29.5C77.2379 28.7346 77.5552 27.6146 77.5552 26.14C77.5552 24.6466 77.2379 23.536 76.6032 22.808C75.9686 22.0613 75.1286 21.688 74.0832 21.688C73.0379 21.688 72.1979 22.0613 71.5632 22.808C70.9286 23.536 70.6112 24.6466 70.6112 26.14C70.6112 27.6146 70.9286 28.7346 71.5632 29.5C72.1979 30.2466 73.0379 30.62 74.0832 30.62Z" fill="white"/>
<path d="M84.0281 33V19.308H87.4441V21.408C87.8547 20.6613 88.4241 20.0826 89.1521 19.672C89.8801 19.2426 90.7201 19.028 91.6721 19.028C93.7254 19.028 95.0694 19.924 95.7041 21.716C96.1334 20.876 96.7494 20.2226 97.5521 19.756C98.3547 19.2706 99.2694 19.028 100.296 19.028C103.376 19.028 104.916 20.904 104.916 24.656V33H101.416V24.796C101.416 23.7506 101.239 22.9853 100.884 22.5C100.548 22.0146 99.9694 21.772 99.1481 21.772C98.2334 21.772 97.5147 22.0986 96.9921 22.752C96.4694 23.3866 96.2081 24.2733 96.2081 25.412V33H92.7081V24.796C92.7081 23.7506 92.5307 22.9853 92.1761 22.5C91.8401 22.0146 91.2707 21.772 90.4681 21.772C89.5534 21.772 88.8347 22.0986 88.3121 22.752C87.7894 23.3866 87.5281 24.2733 87.5281 25.412V33H84.0281Z" fill="white"/>
<path d="M108.583 33V19.308H111.999V21.408C112.409 20.6613 112.979 20.0826 113.707 19.672C114.435 19.2426 115.275 19.028 116.227 19.028C118.28 19.028 119.624 19.924 120.259 21.716C120.688 20.876 121.304 20.2226 122.107 19.756C122.909 19.2706 123.824 19.028 124.851 19.028C127.931 19.028 129.471 20.904 129.471 24.656V33H125.971V24.796C125.971 23.7506 125.793 22.9853 125.439 22.5C125.103 22.0146 124.524 21.772 123.703 21.772C122.788 21.772 122.069 22.0986 121.547 22.752C121.024 23.3866 120.763 24.2733 120.763 25.412V33H117.263V24.796C117.263 23.7506 117.085 22.9853 116.731 22.5C116.395 22.0146 115.825 21.772 115.023 21.772C114.108 21.772 113.389 22.0986 112.867 22.752C112.344 23.3866 112.083 24.2733 112.083 25.412V33H108.583Z" fill="white"/>
<path d="M137.589 33.28C136.6 33.28 135.713 33.0933 134.929 32.72C134.164 32.328 133.557 31.8053 133.109 31.152C132.68 30.4986 132.465 29.7613 132.465 28.94C132.465 27.932 132.727 27.1386 133.249 26.56C133.772 25.9626 134.621 25.5333 135.797 25.272C136.973 25.0106 138.551 24.88 140.529 24.88H141.509V24.292C141.509 23.3586 141.304 22.6866 140.893 22.276C140.483 21.8653 139.792 21.66 138.821 21.66C138.056 21.66 137.272 21.7813 136.469 22.024C135.667 22.248 134.855 22.6026 134.033 23.088L133.025 20.708C133.511 20.372 134.08 20.0826 134.733 19.84C135.405 19.5786 136.105 19.3826 136.833 19.252C137.58 19.1026 138.28 19.028 138.933 19.028C140.931 19.028 142.415 19.4946 143.385 20.428C144.356 21.3426 144.841 22.7706 144.841 24.712V33H141.565V30.816C141.248 31.5813 140.744 32.188 140.053 32.636C139.363 33.0653 138.541 33.28 137.589 33.28ZM138.317 30.872C139.232 30.872 139.988 30.5546 140.585 29.92C141.201 29.2853 141.509 28.4826 141.509 27.512V26.896H140.557C138.803 26.896 137.58 27.036 136.889 27.316C136.217 27.5773 135.881 28.0626 135.881 28.772C135.881 29.388 136.096 29.892 136.525 30.284C136.955 30.676 137.552 30.872 138.317 30.872Z" fill="white"/>
<path d="M148.394 33V19.308H151.81V21.436C152.277 20.652 152.902 20.0546 153.686 19.644C154.489 19.2333 155.385 19.028 156.374 19.028C159.603 19.028 161.218 20.904 161.218 24.656V33H157.718V24.824C157.718 23.76 157.513 22.9853 157.102 22.5C156.71 22.0146 156.094 21.772 155.254 21.772C154.227 21.772 153.406 22.0986 152.79 22.752C152.193 23.3866 151.894 24.236 151.894 25.3V33H148.394Z" fill="white"/>
<path d="M170.037 33.28C168.842 33.28 167.787 32.9906 166.873 32.412C165.977 31.8333 165.277 31.012 164.773 29.948C164.269 28.8653 164.017 27.596 164.017 26.14C164.017 24.6653 164.269 23.4053 164.773 22.36C165.277 21.296 165.977 20.4746 166.873 19.896C167.787 19.3173 168.842 19.028 170.037 19.028C171.007 19.028 171.885 19.2426 172.669 19.672C173.453 20.1013 174.041 20.6706 174.433 21.38V13.26H177.933V33H174.517V30.732C174.143 31.516 173.555 32.1413 172.753 32.608C171.95 33.056 171.045 33.28 170.037 33.28ZM171.017 30.62C172.062 30.62 172.902 30.2466 173.537 29.5C174.171 28.7346 174.489 27.6146 174.489 26.14C174.489 24.6466 174.171 23.536 173.537 22.808C172.902 22.0613 172.062 21.688 171.017 21.688C169.971 21.688 169.131 22.0613 168.497 22.808C167.862 23.536 167.545 24.6466 167.545 26.14C167.545 27.6146 167.862 28.7346 168.497 29.5C169.131 30.2466 169.971 30.62 171.017 30.62Z" fill="white"/>
<path d="M186.854 31.88V26.196H181.31V23.732H186.854V18.216H189.43V23.732H194.974V26.196H189.43V31.88H186.854Z" fill="white"/>
<path d="M198.687 33V13.26H207.255C209.42 13.26 211.091 13.7826 212.267 14.828C213.443 15.8546 214.031 17.3013 214.031 19.168C214.031 20.6426 213.648 21.8653 212.883 22.836C212.118 23.788 211.016 24.432 209.579 24.768C210.531 25.0666 211.315 25.7853 211.931 26.924L215.235 33H211.287L207.871 26.7C207.535 26.084 207.134 25.664 206.667 25.44C206.219 25.216 205.64 25.104 204.931 25.104H202.271V33H198.687ZM202.271 22.444H206.639C209.252 22.444 210.559 21.38 210.559 19.252C210.559 17.1426 209.252 16.088 206.639 16.088H202.271V22.444Z" fill="white"/>
</svg>
