<svg width="36" height="36" viewBox="0 0 36 36" fill="none" xmlns="http://www.w3.org/2000/svg">
<rect x="0.5" y="0.5" width="35" height="35" rx="7.5" fill="#F1F6FD" />
<g clip-path="url(#clip0_1586_177996)">
<path d="M12 15H18" stroke="#084CD0" stroke-width="2.004" stroke-linecap="round" stroke-linejoin="round" />
<path d="M10 11H14" stroke="#084CD0" stroke-width="2.004" stroke-linecap="round" stroke-linejoin="round" />
<path d="M12 11V22C12 22.2652 12.1054 22.5196 12.2929 22.7071C12.4804 22.8946 12.7348 23 13 23H18" stroke="#084CD0" stroke-width="2.004" stroke-linecap="round" stroke-linejoin="round" />
<path d="M18 14C18 13.7348 18.1054 13.4804 18.2929 13.2929C18.4804 13.1054 18.7348 13 19 13H25C25.2652 13 25.5196 13.1054 25.7071 13.2929C25.8946 13.4804 26 13.7348 26 14V16C26 16.2652 25.8946 16.5196 25.7071 16.7071C25.5196 16.8946 25.2652 17 25 17H19C18.7348 17 18.4804 16.8946 18.2929 16.7071C18.1054 16.5196 18 16.2652 18 16V14Z" stroke="#084CD0" stroke-width="2.004" stroke-linecap="round" stroke-linejoin="round" />
<path d="M18 22C18 21.7348 18.1054 21.4804 18.2929 21.2929C18.4804 21.1054 18.7348 21 19 21H25C25.2652 21 25.5196 21.1054 25.7071 21.2929C25.8946 21.4804 26 21.7348 26 22V24C26 24.2652 25.8946 24.5196 25.7071 24.7071C25.5196 24.8946 25.2652 25 25 25H19C18.7348 25 18.4804 24.8946 18.2929 24.7071C18.1054 24.5196 18 24.2652 18 24V22Z" stroke="#084CD0" stroke-width="2.004" stroke-linecap="round" stroke-linejoin="round" />
</g>
<rect x="0.5" y="0.5" width="35" height="35" rx="7.5" stroke="#084CD0" />
<defs>
<clipPath id="clip0_1586_177996">
<rect width="20" height="20" fill="white" transform="translate(8 8)" />
</clipPath>
</defs>
</svg>