<svg width="176" height="95" viewBox="0 0 176 95" fill="none" xmlns="http://www.w3.org/2000/svg">
<path d="M87.5121 18.1628C91.7615 18.1476 95.5615 16.2818 98.1812 13.3347L107.533 18.6807L113.458 15.2613L112.133 14.4922C112.133 14.4922 112.11 14.4922 112.095 14.4998L101.128 8.2171C101.128 8.2171 101.144 8.17902 101.151 8.15617L95.1427 4.69116C94.7086 8.52933 91.4645 11.5146 87.5045 11.5222C83.6131 11.5374 80.3917 8.65879 79.851 4.91202L73.8729 8.34656C73.8729 8.34656 73.8881 8.39226 73.9033 8.42272L62.8991 14.7283C62.8991 14.7283 62.8611 14.7054 62.8382 14.6978L61.6807 15.3604L67.7196 18.7416L76.9039 13.487C79.5388 16.358 83.3084 18.1628 87.5121 18.1552" fill="white"/>
<path d="M68.4963 43.3546C70.4459 46.7054 69.5778 50.9091 66.6382 53.2546L85.2198 63.9238L85.1741 57.4203L75.4112 51.8229C76.6906 48.0381 76.4011 43.7506 74.2308 40.0267C72.0375 36.2571 68.3897 33.8658 64.4069 33.1347L64.3688 22.0543L58.6953 18.8711V22.397C58.6953 22.397 58.7029 22.397 58.7106 22.4046L58.741 33.2337C58.741 33.2337 58.7105 33.2337 58.6953 33.2414V40.1942C62.2517 38.6102 66.4935 39.9277 68.4963 43.3622" fill="white"/>
<path d="M100.709 40.0192C98.5238 43.7736 98.2496 48.0991 99.5595 51.9068L89.6899 57.5651L89.728 64.0001L108.348 53.2852C105.37 50.9473 104.494 46.7208 106.451 43.3548C108.401 40.004 112.49 38.6713 115.986 40.0801V33.1806C115.986 33.1806 115.955 33.1806 115.948 33.1806L115.978 22.2525C115.978 22.2525 115.986 22.2525 115.993 22.2525V19.0083L110.32 22.2905L110.282 33.1882C106.406 33.9726 102.872 36.3333 100.725 40.0192" fill="white"/>
<path d="M87.4817 7.64591C89.5912 7.64591 91.3047 5.92483 91.2971 3.80775C91.2971 3.27467 91.1828 2.77205 90.9848 2.31512C90.3984 0.94435 89.0353 -0.00757004 87.4589 4.53639e-05C85.7683 4.53639e-05 84.3366 1.11189 83.8339 2.63497C83.7121 3.01574 83.6436 3.41175 83.6436 3.83059C83.6436 5.94006 85.3647 7.65352 87.4817 7.64591Z" fill="white"/>
<path d="M65.138 45.3118C64.0718 43.4841 61.7338 42.8672 59.9061 43.9258C59.4111 44.2151 59.0075 44.6035 58.6953 45.0452C57.8652 46.2256 57.7434 47.8325 58.5201 49.1575C59.3807 50.6349 61.0789 51.3203 62.6553 50.97C63.0285 50.8862 63.4016 50.7492 63.7443 50.5435C65.572 49.485 66.1889 47.1395 65.1303 45.3118" fill="white"/>
<path d="M115.034 43.9258C113.206 42.8672 110.868 43.4841 109.802 45.3118C108.743 47.1395 109.36 49.4774 111.188 50.5435C111.561 50.7568 111.95 50.9015 112.346 50.9852C113.907 51.3051 115.574 50.6197 116.42 49.1652C117.273 47.703 117.044 45.9134 115.978 44.7101C115.712 44.4055 115.399 44.1466 115.034 43.9334" fill="white"/>
<path d="M138.294 76.3311L132.201 93.7478H130.156L124.807 78.8664L119.465 93.7478H117.467L111.327 76.3311H113.271L118.566 91.307L123.962 76.3311H125.759L131.149 91.4016L136.444 76.3311H138.294Z" fill="white"/>
<path d="M154.275 93.7478L150.079 88.1511L148.631 88.2456H143.737V93.7478H141.84V76.3311H148.631C150.977 76.3311 152.78 76.857 154.127 77.909C155.451 79.0083 156.166 80.6335 156.072 82.312C156.107 83.5354 155.741 84.741 155.026 85.7575C154.257 86.7386 153.164 87.4478 151.929 87.7669L156.373 93.7478H154.275ZM152.727 85.5152C153.702 84.7173 154.234 83.5354 154.175 82.312C154.251 81.0709 153.714 79.8652 152.727 79.0615C151.775 78.2932 150.38 77.9149 148.578 77.9149H143.732V86.6736H148.578C150.374 86.6736 151.775 86.2894 152.727 85.527" fill="white"/>
<path d="M166.26 85.5625L162.567 89.203V93.7478H160.616V76.3311H162.567V86.8568L173.252 76.3311H175.45L167.56 84.2268L176 93.7478H173.701L166.26 85.5625Z" fill="white"/>
<path d="M0 85.2314C0 79.8711 4.29657 76 10.0411 76C13.0847 76 15.7324 77.052 17.4818 79.0141L15.236 81.0235C13.9417 79.6642 12.1096 78.9018 10.1888 78.9195C6.34143 78.9195 3.49872 81.5495 3.49872 85.2373C3.49872 88.9252 6.34734 91.5551 10.1888 91.5551C12.1155 91.5788 13.9594 90.7927 15.236 89.4039L17.4818 91.4606C15.7324 93.4227 13.0847 94.4747 10.0411 94.4747C4.29657 94.4747 0 90.5977 0 85.2432" fill="white"/>
<path d="M32.5111 94.2264L28.7169 88.9665H23.7702V94.2264H20.2715V76.2363H27.9604C32.9071 76.2363 35.9507 78.6772 35.9507 82.6487C36.0748 85.1723 34.4437 87.4712 31.9556 88.2927L36.2521 94.2264H32.5052H32.5111ZM27.8186 79.0613H23.7702V86.236H27.8186C30.8622 86.236 32.4638 84.8945 32.4638 82.6487C32.4638 80.4029 30.8681 79.0613 27.8186 79.0613Z" fill="white"/>
<path d="M37.9541 85.2314C37.9541 79.9183 42.2507 76 48.0425 76C53.8343 76 58.1309 79.9242 58.1309 85.2314C58.1309 90.5386 53.8343 94.4629 48.0425 94.4629C42.2507 94.4629 37.9541 90.5386 37.9541 85.2314ZM54.638 85.2314C54.638 81.7445 51.689 78.9136 48.0425 78.9136C44.396 78.9136 41.4528 81.7386 41.4528 85.2314C41.4528 88.7242 44.4019 91.5492 48.0425 91.5492C51.683 91.5492 54.638 88.7242 54.638 85.2314Z" fill="white"/>
<path d="M88.1005 76.2363L81.8595 94.2264H78.1598L73.5677 80.923L68.822 94.2264H65.1282L58.9346 76.2363H62.5278L67.1731 89.918L72.0193 76.2363H75.2639L79.9565 89.9653L84.7554 76.2363H88.1005Z" fill="white"/>
<path d="M90.3994 76.2363H98.5907C104.637 76.2363 108.78 79.8237 108.78 85.2314C108.78 90.639 104.637 94.2264 98.5907 94.2264H90.3994V76.2363ZM98.4429 91.4014C102.586 91.4014 105.287 88.9606 105.287 85.2314C105.287 81.5021 102.592 79.0613 98.4429 79.0613H93.845V91.4073H98.4429V91.4014Z" fill="white"/>
</svg>
