<?xml version="1.0" standalone="no"?>
<!DOCTYPE svg PUBLIC "-//W3C//DTD SVG 20010904//EN"
 "http://www.w3.org/TR/2001/REC-SVG-20010904/DTD/svg10.dtd">
<svg version="1.0" xmlns="http://www.w3.org/2000/svg"
 width="500.000000pt" height="500.000000pt" viewBox="0 0 500.000000 500.000000"
 preserveAspectRatio="xMidYMid meet">

<g transform="translate(0.000000,500.000000) scale(0.100000,-0.100000)"
fill="#000000" stroke="none">
<path d="M1362 3003 c-7 -3 -19 -18 -27 -33 -45 -86 23 -166 116 -137 56 17
72 114 24 154 -25 22 -79 30 -113 16z"/>
<path d="M1141 2774 c-62 -52 -27 -145 59 -160 22 -4 80 36 90 62 35 91 -74
162 -149 98z"/>
<path d="M1574 2782 c-47 -39 -54 -94 -17 -134 27 -31 61 -40 99 -28 97 32 78
181 -24 180 -20 -1 -46 -9 -58 -18z"/>
<path d="M916 2559 c-16 -19 -26 -43 -26 -63 0 -58 66 -107 122 -93 52 14 99
-42 96 -115 -2 -29 5 -45 27 -68 40 -42 95 -42 137 0 27 28 29 35 24 77 -5 43
-3 48 31 81 30 28 42 33 68 29 18 -3 38 -1 46 3 9 6 22 4 36 -6 13 -8 23 -10
23 -5 0 5 -9 13 -21 16 -20 7 -20 7 -1 23 23 21 36 71 22 92 -6 9 -10 10 -10
3 0 -7 -9 -10 -21 -8 -25 5 -38 15 -20 15 7 0 9 5 5 12 -4 7 -3 8 5 4 6 -4 8
-12 5 -18 -4 -6 -2 -8 4 -5 11 8 11 25 -1 45 -5 6 -28 12 -52 12 -36 0 -47 -5
-70 -32 -23 -27 -26 -38 -21 -70 8 -47 -4 -70 -46 -95 -41 -24 -114 -22 -158
3 -33 20 -43 43 -37 84 6 34 -11 77 -36 95 -12 8 -40 15 -63 15 -35 0 -47 -5
-68 -31z"/>
<path d="M1486 2431 c-3 -5 3 -11 15 -14 16 -4 18 -3 8 9 -13 16 -16 17 -23 5z"/>
<path d="M1510 2390 c0 -5 5 -10 11 -10 5 0 7 -5 3 -12 -4 -7 -3 -8 5 -4 9 6
9 11 0 22 -14 17 -19 18 -19 4z"/>
<path d="M1550 2283 c0 -6 8 -17 18 -24 16 -13 16 -13 2 6 -8 11 -16 22 -17
24 -2 2 -3 0 -3 -6z"/>
<path d="M1374 2164 c-51 -25 -71 -96 -39 -141 20 -28 75 -46 106 -34 40 15
62 47 62 91 0 44 -13 64 -54 86 -34 17 -37 17 -75 -2z"/>
</g>
</svg>
