<svg width="176" height="95" viewBox="0 0 176 95" fill="none" xmlns="http://www.w3.org/2000/svg">
<path d="M87.5119 18.1631C91.7613 18.1478 95.5614 16.2821 98.1811 13.3349L107.533 18.6809L113.458 15.2616L112.133 14.4924C112.133 14.4924 112.11 14.4924 112.094 14.5001L101.128 8.21734C101.128 8.21734 101.144 8.17926 101.151 8.15642L95.1426 4.69141C94.7085 8.52957 91.4644 11.5148 87.5044 11.5224C83.6129 11.5377 80.3916 8.65904 79.8509 4.91226L73.8728 8.3468C73.8728 8.3468 73.888 8.3925 73.9032 8.42296L62.899 14.7285C62.899 14.7285 62.8609 14.7057 62.8381 14.698L61.6805 15.3606L67.7195 18.7418L76.9037 13.4872C79.5387 16.3582 83.3082 18.1631 87.5119 18.1554" fill="#084CD0"/>
<path d="M68.4963 43.3546C70.4459 46.7054 69.5778 50.9091 66.6382 53.2546L85.2198 63.9238L85.1741 57.4203L75.4112 51.8229C76.6906 48.0381 76.4011 43.7506 74.2308 40.0267C72.0375 36.2571 68.3897 33.8658 64.4069 33.1347L64.3688 22.0543L58.6953 18.8711V22.397C58.6953 22.397 58.7029 22.397 58.7106 22.4046L58.741 33.2337C58.741 33.2337 58.7105 33.2337 58.6953 33.2414V40.1942C62.2517 38.6102 66.4935 39.9277 68.4963 43.3622" fill="#084CD0"/>
<path d="M100.709 40.0187C98.5238 43.7731 98.2496 48.0987 99.5595 51.9064L89.6899 57.5646L89.728 63.9996L108.348 53.2848C105.37 50.9468 104.494 46.7203 106.451 43.3543C108.401 40.0035 112.49 38.6708 115.986 40.0796V33.1801C115.986 33.1801 115.955 33.1801 115.948 33.1801L115.978 22.252C115.978 22.252 115.986 22.252 115.993 22.252V19.0078L110.32 22.2901L110.282 33.1877C106.406 33.9721 102.872 36.3329 100.725 40.0187" fill="#084CD0"/>
<path d="M87.4815 7.64591C89.591 7.64591 91.3044 5.92483 91.2968 3.80775C91.2968 3.27467 91.1826 2.77205 90.9846 2.31512C90.3982 0.94435 89.035 -0.00757004 87.4586 4.53639e-05C85.768 4.53639e-05 84.3363 1.11189 83.8337 2.63497C83.7118 3.01574 83.6433 3.41175 83.6433 3.83059C83.6433 5.94006 85.3644 7.65352 87.4815 7.64591Z" fill="#084CD0"/>
<path d="M65.138 45.3115C64.0718 43.4838 61.7338 42.867 59.9061 43.9255C59.4111 44.2149 59.0075 44.6033 58.6953 45.045C57.8652 46.2254 57.7434 47.8322 58.5201 49.1573C59.3807 50.6347 61.0789 51.3201 62.6553 50.9698C63.0285 50.886 63.4016 50.7489 63.7443 50.5433C65.572 49.4848 66.1889 47.1392 65.1303 45.3115" fill="#084CD0"/>
<path d="M115.034 43.9255C113.206 42.867 110.868 43.4838 109.802 45.3115C108.744 47.1392 109.361 49.4771 111.188 50.5433C111.561 50.7565 111.95 50.9012 112.346 50.985C113.907 51.3048 115.575 50.6195 116.42 49.1649C117.273 47.7028 117.044 45.9131 115.978 44.7099C115.712 44.4053 115.4 44.1464 115.034 43.9331" fill="#084CD0"/>
<path d="M138.294 76.3311L132.201 93.7478H130.156L124.808 78.8664L119.465 93.7478H117.467L111.327 76.3311H113.271L118.567 91.307L123.962 76.3311H125.759L131.149 91.4016L136.444 76.3311H138.294Z" fill="#084CD0"/>
<path d="M154.275 93.7478L150.079 88.1511L148.631 88.2456H143.737V93.7478H141.84V76.3311H148.631C150.977 76.3311 152.78 76.857 154.127 77.909C155.451 79.0083 156.166 80.6335 156.071 82.312C156.107 83.5354 155.74 84.741 155.025 85.7575C154.257 86.7386 153.164 87.4478 151.928 87.7669L156.373 93.7478H154.275ZM152.726 85.5152C153.701 84.7173 154.233 83.5354 154.174 82.312C154.251 81.0709 153.713 79.8652 152.726 79.0615C151.775 78.2932 150.38 77.9149 148.577 77.9149H143.731V86.6736H148.577C150.374 86.6736 151.775 86.2894 152.726 85.527" fill="#084CD0"/>
<path d="M166.26 85.5625L162.567 89.203V93.7478H160.616V76.3311H162.567V86.8568L173.252 76.3311H175.45L167.56 84.2268L176 93.7478H173.701L166.26 85.5625Z" fill="#084CD0"/>
<path d="M0 85.2314C0 79.8711 4.29657 76 10.0411 76C13.0847 76 15.7324 77.052 17.4818 79.0141L15.236 81.0235C13.9417 79.6642 12.1096 78.9018 10.1888 78.9195C6.34143 78.9195 3.49872 81.5495 3.49872 85.2373C3.49872 88.9252 6.34734 91.5551 10.1888 91.5551C12.1155 91.5788 13.9594 90.7927 15.236 89.4039L17.4818 91.4606C15.7324 93.4227 13.0847 94.4747 10.0411 94.4747C4.29657 94.4747 0 90.5977 0 85.2432" fill="#084CD0"/>
<path d="M32.5109 94.2264L28.7166 88.9665H23.77V94.2264H20.2712V76.2363H27.9602C32.9068 76.2363 35.9505 78.6772 35.9505 82.6487C36.0746 85.1723 34.4434 87.4712 31.9553 88.2927L36.2519 94.2264H32.505H32.5109ZM27.8183 79.0613H23.77V86.236H27.8183C30.862 86.236 32.4636 84.8945 32.4636 82.6487C32.4636 80.4029 30.8679 79.0613 27.8183 79.0613Z" fill="#084CD0"/>
<path d="M37.9541 85.2314C37.9541 79.9183 42.2507 76 48.0425 76C53.8343 76 58.1309 79.9242 58.1309 85.2314C58.1309 90.5386 53.8343 94.4629 48.0425 94.4629C42.2507 94.4629 37.9541 90.5386 37.9541 85.2314ZM54.638 85.2314C54.638 81.7445 51.689 78.9136 48.0425 78.9136C44.396 78.9136 41.4528 81.7386 41.4528 85.2314C41.4528 88.7242 44.4019 91.5492 48.0425 91.5492C51.683 91.5492 54.638 88.7242 54.638 85.2314Z" fill="#084CD0"/>
<path d="M88.1005 76.2363L81.8595 94.2264H78.1598L73.5677 80.923L68.822 94.2264H65.1282L58.9346 76.2363H62.5278L67.1731 89.918L72.0193 76.2363H75.2639L79.9565 89.9653L84.7554 76.2363H88.1005Z" fill="#084CD0"/>
<path d="M90.3994 76.2363H98.5907C104.637 76.2363 108.78 79.8237 108.78 85.2314C108.78 90.639 104.637 94.2264 98.5907 94.2264H90.3994V76.2363ZM98.4429 91.4014C102.586 91.4014 105.287 88.9606 105.287 85.2314C105.287 81.5021 102.592 79.0613 98.4429 79.0613H93.845V91.4073H98.4429V91.4014Z" fill="#084CD0"/>
</svg>
