<svg width="201" height="48" viewBox="0 0 201 48" fill="none" xmlns="http://www.w3.org/2000/svg">
<path d="M23.6333 13.6223C26.8204 13.6109 29.6704 12.2115 31.6352 10.0012L38.649 14.0107L43.0926 11.4462L42.0988 10.8693C42.0988 10.8693 42.0816 10.8693 42.0702 10.875L33.8456 6.16301C33.8456 6.16301 33.857 6.13445 33.8627 6.11731L29.3563 3.51855C29.0307 6.39718 26.5977 8.63611 23.6277 8.64182C20.7091 8.65324 18.293 6.49428 17.8875 3.68419L13.404 6.2601C13.404 6.2601 13.4153 6.29437 13.4268 6.31722L5.1736 11.0464C5.1736 11.0464 5.14507 11.0292 5.12793 11.0235L4.25977 11.5204L8.78899 14.0564L15.6772 10.1154C17.6534 12.2687 20.4805 13.6223 23.6333 13.6166" fill="white"/>
<path d="M9.37225 32.516C10.8344 35.029 10.1833 38.1818 7.97867 39.941L21.9149 47.9429L21.8806 43.0652L14.5584 38.8672C15.5179 36.0286 15.3009 32.813 13.6731 30.02C12.0281 27.1928 9.29229 25.3994 6.30515 24.8511L6.27663 16.5407L2.02148 14.1533V16.7978C2.02148 16.7978 2.02721 16.7978 2.03292 16.8035L2.05579 24.9253C2.05579 24.9253 2.03291 24.9253 2.02148 24.931V30.1457C4.68878 28.9577 7.87011 29.9458 9.37225 32.5217" fill="white"/>
<path d="M33.5332 30.014C31.8939 32.8298 31.6883 36.074 32.6707 38.9298L25.2686 43.1735L25.2971 47.9997L39.2619 39.9636C37.0286 38.2101 36.3718 35.0402 37.8397 32.5157C39.3018 30.0026 42.3689 29.0031 44.9905 30.0597V24.8851C44.9905 24.8851 44.9677 24.8851 44.962 24.8851L44.9848 16.689C44.9848 16.689 44.9905 16.689 44.9962 16.689V14.2559L40.7411 16.7175L40.7125 24.8908C37.8054 25.4791 35.1552 27.2496 33.5446 30.014" fill="white"/>
<path d="M23.612 5.73443C25.1941 5.73443 26.4792 4.44362 26.4735 2.85581C26.4735 2.456 26.3878 2.07904 26.2393 1.73634C25.7996 0.708263 24.7772 -0.00567753 23.5949 3.40229e-05C22.3269 3.40229e-05 21.2531 0.833916 20.8762 1.97623C20.7848 2.2618 20.7334 2.55881 20.7334 2.87294C20.7334 4.45505 22.0242 5.74014 23.612 5.73443Z" fill="white"/>
<path d="M6.85347 33.9836C6.05385 32.6129 4.30034 32.1502 2.92957 32.9441C2.55832 33.1612 2.25562 33.4525 2.02145 33.7837C1.39889 34.669 1.30752 35.8742 1.89009 36.868C2.5355 37.976 3.80921 38.49 4.9915 38.2273C5.27136 38.1645 5.55119 38.0617 5.80821 37.9075C7.17899 37.1136 7.64166 35.3544 6.84775 33.9836" fill="white"/>
<path d="M44.2757 32.9441C42.9049 32.1502 41.1515 32.6129 40.3518 33.9836C39.5579 35.3544 40.0206 37.1079 41.3914 37.9075C41.6712 38.0674 41.9625 38.1759 42.2595 38.2387C43.4304 38.4786 44.6812 37.9646 45.3152 36.8737C45.9549 35.7771 45.7835 34.4348 44.9839 33.5324C44.784 33.304 44.5498 33.1098 44.2757 32.9498" fill="white"/>
<path d="M174.327 29.7821L171.18 25.5841L170.095 25.6583H166.422V29.7821H165V16.7197H170.095C171.854 16.7197 173.202 17.1138 174.218 17.902C175.207 18.7302 175.749 19.9468 175.681 21.2033C175.709 22.1229 175.435 23.0253 174.892 23.7849C174.316 24.5217 173.499 25.0529 172.568 25.2928L175.903 29.7764H174.327V29.7821ZM173.168 23.6079C173.899 23.0082 174.298 22.1229 174.253 21.2033C174.31 20.2723 173.91 19.3699 173.168 18.7645C172.454 18.1876 171.408 17.902 170.061 17.902H166.428V24.4703H170.061C171.408 24.4703 172.459 24.1847 173.168 23.6079Z" fill="white"/>
<path d="M183.318 23.6479L180.548 26.3723V29.7821H179.086V16.7197H180.548V24.6131L188.561 16.7197H190.212L184.295 22.6426L190.623 29.7821H188.898L183.318 23.6479Z" fill="white"/>
<path d="M58.6289 23.396C58.6289 19.3751 61.8503 16.4736 66.1568 16.4736C68.4414 16.4736 70.429 17.2618 71.737 18.7354L70.052 20.2433C69.0811 19.2266 67.7046 18.6497 66.271 18.6612C63.3866 18.6612 61.2506 20.6374 61.2506 23.396C61.2506 26.1547 63.3866 28.1309 66.271 28.1309C67.716 28.1481 69.0982 27.5598 70.052 26.5145L71.737 28.0567C70.4233 29.5303 68.4414 30.3184 66.1568 30.3184C61.8503 30.3184 58.6289 27.4113 58.6289 23.396Z" fill="white"/>
<path d="M83.0126 30.1416L80.1683 26.1949H76.4615V30.1416H73.8398V16.6509H79.6085C83.3153 16.6509 85.6 18.4786 85.6 21.46C85.6914 23.3505 84.4691 25.0754 82.6014 25.6923L85.8227 30.1416H83.0126ZM79.4943 18.7642H76.4615V24.1444H79.4943C81.7789 24.1444 82.9783 23.1392 82.9783 21.4543C82.9783 19.7694 81.7789 18.7642 79.4943 18.7642Z" fill="white"/>
<path d="M87.0967 23.396C87.0967 19.4151 90.318 16.4736 94.6645 16.4736C99.011 16.4736 102.232 19.4151 102.232 23.396C102.232 27.377 99.011 30.3184 94.6645 30.3184C90.318 30.3184 87.0967 27.377 87.0967 23.396ZM99.6049 23.396C99.6049 20.7801 97.3889 18.6612 94.6588 18.6612C91.9287 18.6612 89.7125 20.7801 89.7125 23.396C89.7125 26.0119 91.9287 28.1309 94.6588 28.1309C97.3889 28.1309 99.6049 26.0119 99.6049 23.396Z" fill="white"/>
<path d="M124.702 16.645L120.024 30.1414H117.248L113.804 20.1633L110.246 30.1414H107.476L102.832 16.645H105.528L109.012 26.9087L112.645 16.645H115.078L118.596 26.943L122.194 16.645H124.702Z" fill="white"/>
<path d="M126.425 16.645H132.565C137.094 16.645 140.207 19.3352 140.207 23.3904C140.207 27.4456 137.1 30.1357 132.565 30.1357H126.425V16.645ZM132.456 28.0167C135.563 28.0167 137.585 26.189 137.585 23.3904C137.585 20.5917 135.563 18.7583 132.456 18.7583H129.012V28.0167H132.456Z" fill="white"/>
<path d="M162.344 16.7197L157.775 29.7821H156.238L152.229 18.6217L148.225 29.7821H146.723L142.119 16.7197H143.576L147.551 27.9487L151.595 16.7197H152.943L156.986 28.0229L160.956 16.7197H162.344Z" fill="white"/>
</svg>
