<svg width="156" height="44" viewBox="0 0 156 44" fill="none" xmlns="http://www.w3.org/2000/svg">
<path d="M84.8368 13V4.6H87.9808C88.6928 4.6 89.3048 4.716 89.8168 4.948C90.3288 5.172 90.7208 5.5 90.9928 5.932C91.2728 6.356 91.4128 6.872 91.4128 7.48C91.4128 8.072 91.2728 8.584 90.9928 9.016C90.7208 9.44 90.3288 9.768 89.8168 10C89.3048 10.232 88.6928 10.348 87.9808 10.348H85.3288L85.7248 9.928V13H84.8368ZM85.7248 10L85.3288 9.568H87.9568C88.7968 9.568 89.4328 9.388 89.8648 9.028C90.3048 8.66 90.5247 8.144 90.5247 7.48C90.5247 6.808 90.3048 6.288 89.8648 5.92C89.4328 5.552 88.7968 5.368 87.9568 5.368H85.3288L85.7248 4.948V10ZM95.6857 13.06C95.0777 13.06 94.5297 12.924 94.0417 12.652C93.5617 12.372 93.1817 11.992 92.9017 11.512C92.6217 11.024 92.4817 10.468 92.4817 9.844C92.4817 9.212 92.6217 8.656 92.9017 8.176C93.1817 7.696 93.5617 7.32 94.0417 7.048C94.5217 6.776 95.0697 6.64 95.6857 6.64C96.3097 6.64 96.8617 6.776 97.3417 7.048C97.8297 7.32 98.2097 7.696 98.4817 8.176C98.7617 8.656 98.9017 9.212 98.9017 9.844C98.9017 10.468 98.7617 11.024 98.4817 11.512C98.2097 11.992 97.8297 12.372 97.3417 12.652C96.8537 12.924 96.3017 13.06 95.6857 13.06ZM95.6857 12.304C96.1417 12.304 96.5457 12.204 96.8977 12.004C97.2497 11.796 97.5257 11.508 97.7257 11.14C97.9337 10.764 98.0377 10.332 98.0377 9.844C98.0377 9.348 97.9337 8.916 97.7257 8.548C97.5257 8.18 97.2497 7.896 96.8977 7.696C96.5457 7.488 96.1457 7.384 95.6977 7.384C95.2497 7.384 94.8497 7.488 94.4977 7.696C94.1457 7.896 93.8657 8.18 93.6577 8.548C93.4497 8.916 93.3457 9.348 93.3457 9.844C93.3457 10.332 93.4497 10.764 93.6577 11.14C93.8657 11.508 94.1457 11.796 94.4977 12.004C94.8497 12.204 95.2457 12.304 95.6857 12.304ZM101.749 13L99.3733 6.7H100.189L102.349 12.544H101.977L104.197 6.7H104.929L107.125 12.544H106.753L108.949 6.7H109.729L107.341 13H106.537L104.425 7.504H104.677L102.553 13H101.749ZM113.512 13.06C112.856 13.06 112.28 12.924 111.784 12.652C111.288 12.372 110.9 11.992 110.62 11.512C110.34 11.024 110.2 10.468 110.2 9.844C110.2 9.22 110.332 8.668 110.596 8.188C110.868 7.708 111.236 7.332 111.7 7.06C112.172 6.78 112.7 6.64 113.284 6.64C113.876 6.64 114.4 6.776 114.856 7.048C115.32 7.312 115.684 7.688 115.948 8.176C116.212 8.656 116.344 9.212 116.344 9.844C116.344 9.884 116.34 9.928 116.332 9.976C116.332 10.016 116.332 10.06 116.332 10.108H110.848V9.472H115.876L115.54 9.724C115.54 9.268 115.44 8.864 115.24 8.512C115.048 8.152 114.784 7.872 114.448 7.672C114.112 7.472 113.724 7.372 113.284 7.372C112.852 7.372 112.464 7.472 112.12 7.672C111.776 7.872 111.508 8.152 111.316 8.512C111.124 8.872 111.028 9.284 111.028 9.748V9.88C111.028 10.36 111.132 10.784 111.34 11.152C111.556 11.512 111.852 11.796 112.228 12.004C112.612 12.204 113.048 12.304 113.536 12.304C113.92 12.304 114.276 12.236 114.604 12.1C114.94 11.964 115.228 11.756 115.468 11.476L115.948 12.028C115.668 12.364 115.316 12.62 114.892 12.796C114.476 12.972 114.016 13.06 113.512 13.06ZM118.079 13V6.7H118.895V8.416L118.811 8.116C118.987 7.636 119.283 7.272 119.699 7.024C120.115 6.768 120.631 6.64 121.247 6.64V7.468C121.215 7.468 121.183 7.468 121.151 7.468C121.119 7.46 121.087 7.456 121.055 7.456C120.391 7.456 119.871 7.66 119.495 8.068C119.119 8.468 118.931 9.04 118.931 9.784V13H118.079ZM125.419 13.06C124.763 13.06 124.187 12.924 123.691 12.652C123.195 12.372 122.807 11.992 122.527 11.512C122.247 11.024 122.107 10.468 122.107 9.844C122.107 9.22 122.239 8.668 122.503 8.188C122.775 7.708 123.143 7.332 123.607 7.06C124.079 6.78 124.607 6.64 125.191 6.64C125.783 6.64 126.307 6.776 126.763 7.048C127.227 7.312 127.591 7.688 127.855 8.176C128.119 8.656 128.251 9.212 128.251 9.844C128.251 9.884 128.247 9.928 128.239 9.976C128.239 10.016 128.239 10.06 128.239 10.108H122.755V9.472H127.783L127.447 9.724C127.447 9.268 127.347 8.864 127.147 8.512C126.955 8.152 126.691 7.872 126.355 7.672C126.019 7.472 125.631 7.372 125.191 7.372C124.759 7.372 124.371 7.472 124.027 7.672C123.683 7.872 123.415 8.152 123.223 8.512C123.031 8.872 122.935 9.284 122.935 9.748V9.88C122.935 10.36 123.039 10.784 123.247 11.152C123.463 11.512 123.759 11.796 124.135 12.004C124.519 12.204 124.955 12.304 125.443 12.304C125.827 12.304 126.183 12.236 126.511 12.1C126.847 11.964 127.135 11.756 127.375 11.476L127.855 12.028C127.575 12.364 127.223 12.62 126.799 12.796C126.383 12.972 125.923 13.06 125.419 13.06ZM132.493 13.06C131.893 13.06 131.353 12.924 130.873 12.652C130.401 12.38 130.029 12.004 129.757 11.524C129.485 11.036 129.349 10.476 129.349 9.844C129.349 9.204 129.485 8.644 129.757 8.164C130.029 7.684 130.401 7.312 130.873 7.048C131.353 6.776 131.893 6.64 132.493 6.64C133.045 6.64 133.537 6.764 133.969 7.012C134.409 7.26 134.757 7.624 135.013 8.104C135.277 8.576 135.409 9.156 135.409 9.844C135.409 10.524 135.281 11.104 135.025 11.584C134.769 12.064 134.421 12.432 133.981 12.688C133.549 12.936 133.053 13.06 132.493 13.06ZM132.553 12.304C133.001 12.304 133.401 12.204 133.753 12.004C134.113 11.796 134.393 11.508 134.593 11.14C134.801 10.764 134.905 10.332 134.905 9.844C134.905 9.348 134.801 8.916 134.593 8.548C134.393 8.18 134.113 7.896 133.753 7.696C133.401 7.488 133.001 7.384 132.553 7.384C132.113 7.384 131.717 7.488 131.365 7.696C131.013 7.896 130.733 8.18 130.525 8.548C130.317 8.916 130.213 9.348 130.213 9.844C130.213 10.332 130.317 10.764 130.525 11.14C130.733 11.508 131.013 11.796 131.365 12.004C131.717 12.204 132.113 12.304 132.553 12.304ZM134.929 13V11.104L135.013 9.832L134.893 8.56V4.096H135.745V13H134.929ZM144.51 13.06C143.958 13.06 143.462 12.936 143.022 12.688C142.582 12.432 142.234 12.064 141.978 11.584C141.722 11.104 141.594 10.524 141.594 9.844C141.594 9.156 141.722 8.576 141.978 8.104C142.242 7.624 142.594 7.26 143.034 7.012C143.474 6.764 143.966 6.64 144.51 6.64C145.11 6.64 145.646 6.776 146.118 7.048C146.598 7.312 146.974 7.684 147.246 8.164C147.518 8.644 147.654 9.204 147.654 9.844C147.654 10.476 147.518 11.036 147.246 11.524C146.974 12.004 146.598 12.38 146.118 12.652C145.646 12.924 145.11 13.06 144.51 13.06ZM141.258 13V4.096H142.11V8.56L141.99 9.832L142.074 11.104V13H141.258ZM144.45 12.304C144.898 12.304 145.298 12.204 145.65 12.004C146.002 11.796 146.282 11.508 146.49 11.14C146.698 10.764 146.802 10.332 146.802 9.844C146.802 9.348 146.698 8.916 146.49 8.548C146.282 8.18 146.002 7.896 145.65 7.696C145.298 7.488 144.898 7.384 144.45 7.384C144.002 7.384 143.598 7.488 143.238 7.696C142.886 7.896 142.606 8.18 142.398 8.548C142.198 8.916 142.098 9.348 142.098 9.844C142.098 10.332 142.198 10.764 142.398 11.14C142.606 11.508 142.886 11.796 143.238 12.004C143.598 12.204 144.002 12.304 144.45 12.304ZM149.263 15.388C148.967 15.388 148.683 15.34 148.411 15.244C148.147 15.148 147.919 15.004 147.727 14.812L148.123 14.176C148.283 14.328 148.455 14.444 148.639 14.524C148.831 14.612 149.043 14.656 149.275 14.656C149.555 14.656 149.795 14.576 149.995 14.416C150.203 14.264 150.399 13.992 150.583 13.6L150.991 12.676L151.087 12.544L153.679 6.7H154.519L151.363 13.756C151.187 14.164 150.991 14.488 150.775 14.728C150.567 14.968 150.339 15.136 150.091 15.232C149.843 15.336 149.567 15.388 149.263 15.388ZM150.943 13.18L148.039 6.7H148.927L151.495 12.484L150.943 13.18Z" fill="white"/>
<path d="M29.8176 26.6466C29.8176 33.9234 23.9232 39.8178 16.6464 39.8178C9.3696 39.8178 3.4752 33.9234 3.4752 26.6466C3.4752 19.3698 9.3696 13.4754 16.6464 13.4754C16.6656 13.4754 16.6848 13.4754 16.704 13.4754V10.0098C16.6848 10.0098 16.6656 10.0098 16.6464 10.0098C7.4496 10.0098 0 17.4594 0 26.6562C0 35.853 7.4496 43.3026 16.6464 43.3026C25.8432 43.3026 33.2928 35.8434 33.2928 26.6466C33.2928 26.6274 33.2928 26.6082 33.2928 26.589H29.8272C29.8176 26.6082 29.8176 26.6274 29.8176 26.6466Z" fill="white"/>
<path d="M13.978 22.6623C13.9684 22.6719 13.9588 22.6816 13.9492 22.6816C13.8628 22.7488 13.7668 22.8159 13.6804 22.8831C12.5668 23.7567 11.8564 25.1199 11.8564 26.6463C11.8564 29.296 14.0068 31.4464 16.6564 31.4464C19.306 31.4464 21.4564 29.296 21.4564 26.6463C21.4564 26.6368 21.4564 26.6367 21.4564 26.6271V26.6176V21.8271H16.4068C16.3876 21.8271 15.1492 21.8655 13.978 22.6623ZM18.3556 24.9376V26.5504H18.346C18.346 26.5792 18.3556 26.6175 18.3556 26.6463C18.3556 27.5872 17.5876 28.3551 16.6468 28.3551C15.706 28.3551 14.938 27.5872 14.938 26.6463C14.938 25.7055 15.706 24.9376 16.6468 24.9376C16.666 24.9376 16.6852 24.9471 16.7044 24.9471H18.3556V24.9376Z" fill="white"/>
<path d="M19.0176 13.4848H29.7984V24.2752H33.2928V10H19.0176V13.4848Z" fill="white"/>
<path d="M112.173 22.3015H108.453V21.3257H116.992V22.3015H113.271V31.9073H112.143V22.3015H112.173Z" fill="white"/>
<path d="M117.357 26.6319C117.357 23.552 119.706 21.2344 122.907 21.2344C126.079 21.2344 128.457 23.5215 128.457 26.6319C128.457 29.7423 126.079 32.0294 122.907 32.0294C119.706 32.0294 117.357 29.7119 117.357 26.6319ZM127.329 26.6319C127.329 24.1009 125.438 22.2407 122.907 22.2407C120.346 22.2407 118.455 24.1009 118.455 26.6319C118.455 29.1629 120.346 31.0231 122.907 31.0231C125.438 31.0231 127.329 29.1629 127.329 26.6319Z" fill="white"/>
<path d="M139.436 21.3257V31.9073H138.521L131.721 23.3078V31.9073H130.593V21.3257H131.508L138.308 29.9251V21.3257H139.436Z" fill="white"/>
<path d="M142.516 21.3257H143.644V31.9073H142.516V21.3257Z" fill="white"/>
<path d="M145.778 26.6319C145.778 23.5215 148.126 21.2344 151.328 21.2344C152.853 21.2344 154.256 21.7528 155.201 22.7896L154.5 23.491C153.646 22.6066 152.579 22.2407 151.389 22.2407C148.828 22.2407 146.937 24.1314 146.937 26.6319C146.937 29.1325 148.858 31.0231 151.389 31.0231C152.609 31.0231 153.646 30.6572 154.5 29.7423L155.201 30.4437C154.256 31.4805 152.884 31.9989 151.328 31.9989C148.157 32.0294 145.778 29.7423 145.778 26.6319Z" fill="white"/>
<path d="M44.293 26.6014C44.293 23.4604 46.824 21.1733 50.2089 21.1733C52.0081 21.1733 53.5633 21.7832 54.6001 22.942L53.2888 24.1313C52.5265 23.3384 51.4592 22.881 50.3309 22.881C48.0743 22.881 46.3971 24.4362 46.3971 26.6014C46.3971 28.7665 48.0743 30.3217 50.3309 30.3217C51.4592 30.3217 52.557 29.8643 53.2888 29.0409L54.6001 30.2607C53.5633 31.4195 52.0081 32.0294 50.2089 32.0294C46.824 32.0294 44.293 29.7728 44.293 26.6014Z" fill="white"/>
<path d="M63.4438 31.9073L61.2177 28.7968H58.2902V31.9073H56.2471V21.3257H60.7603C63.6572 21.3257 65.4564 22.7589 65.4564 25.107C65.5174 26.6012 64.5721 27.943 63.1083 28.4309L65.6394 31.9073H63.4438ZM60.6688 22.9724H58.2902V27.1806H60.6688C62.4679 27.1806 63.4133 26.3878 63.4133 25.0765C63.4133 23.7652 62.4679 22.9724 60.6688 22.9724Z" fill="white"/>
<path d="M66.6455 26.6014C66.6455 23.4909 69.1766 21.1733 72.5919 21.1733C76.0073 21.1733 78.5384 23.4909 78.5384 26.6014C78.5384 29.7118 76.0073 32.0294 72.5919 32.0294C69.1461 32.0294 66.6455 29.7423 66.6455 26.6014ZM76.4342 26.6014C76.4342 24.5582 74.6961 22.881 72.5614 22.881C70.4268 22.881 68.6886 24.5582 68.6886 26.6014C68.6886 28.6445 70.4268 30.3217 72.5614 30.3217C74.6961 30.3217 76.4342 28.675 76.4342 26.6014Z" fill="white"/>
<path d="M96.134 21.3257L92.4747 31.9073H90.3096L87.5955 24.0702L84.79 31.9073H82.6249L78.9961 21.3257H81.1002L83.8447 29.3762L86.6807 21.3257H88.6019L91.3769 29.4067L94.1824 21.3257H96.134Z" fill="white"/>
<path d="M97.4756 21.3257H102.294C105.862 21.3257 108.271 23.4298 108.271 26.6012C108.271 29.7727 105.831 31.8768 102.294 31.8768H97.4756V21.3257ZM102.202 30.2301C104.642 30.2301 106.228 28.7968 106.228 26.6012C106.228 24.4056 104.642 22.9724 102.202 22.9724H99.4882V30.2301H102.202Z" fill="white"/>
</svg>
