<svg width="166" height="98" viewBox="0 0 166 98" fill="none" xmlns="http://www.w3.org/2000/svg">
<path d="M102.757 24.9699C102.757 35.8851 93.9151 44.7267 82.9999 44.7267C72.0847 44.7267 63.2431 35.8851 63.2431 24.9699C63.2431 14.0546 72.0847 5.21305 82.9999 5.21305C83.0287 5.21305 83.0575 5.21305 83.0863 5.21305V0.0146484C83.0575 0.0146484 83.0287 0.0146484 82.9999 0.0146484C69.2047 0.0146484 58.0303 11.189 58.0303 24.9843C58.0303 38.7795 69.2047 49.9538 82.9999 49.9538C96.7951 49.9538 107.969 38.7651 107.969 24.9699C107.969 24.941 107.969 24.9122 107.969 24.8834H102.771C102.757 24.9122 102.757 24.941 102.757 24.9699Z" fill="#FF7F03"/>
<path d="M78.9969 18.9935C78.9825 19.0079 78.9681 19.0223 78.9537 19.0223C78.8241 19.1231 78.6801 19.2239 78.5505 19.3247C76.8801 20.6351 75.8145 22.6799 75.8145 24.9695C75.8145 28.9439 79.0401 32.1695 83.0145 32.1695C86.9889 32.1695 90.2145 28.9439 90.2145 24.9695C90.2145 24.9551 90.2145 24.9551 90.2145 24.9407V24.9263V17.7407H82.6401C82.6113 17.7407 80.7537 17.7983 78.9969 18.9935ZM85.5633 22.4063V24.8255H85.5489C85.5489 24.8687 85.5633 24.9263 85.5633 24.9695C85.5633 26.3807 84.4113 27.5327 83.0001 27.5327C81.5889 27.5327 80.4369 26.3807 80.4369 24.9695C80.4369 23.5583 81.5889 22.4063 83.0001 22.4063C83.0289 22.4063 83.0577 22.4207 83.0865 22.4207H85.5633V22.4063Z" fill="#FF7F03"/>
<path d="M86.5566 5.2272H102.728V21.4128H107.969V0H86.5566V5.2272Z" fill="#FF7F03"/>
<path d="M101.519 67.4291H95.9741V65.9653H108.7V67.4291H103.155V81.8377H101.473V67.4291H101.519Z" fill="#FF7F03"/>
<path d="M109.245 73.9244C109.245 69.3045 112.745 65.8281 117.517 65.8281C122.243 65.8281 125.788 69.2588 125.788 73.9244C125.788 78.5901 122.243 82.0207 117.517 82.0207C112.745 82.0207 109.245 78.5443 109.245 73.9244ZM124.107 73.9244C124.107 70.1279 121.289 67.3376 117.517 67.3376C113.699 67.3376 110.881 70.1279 110.881 73.9244C110.881 77.721 113.699 80.5112 117.517 80.5112C121.289 80.5112 124.107 77.721 124.107 73.9244Z" fill="#FF7F03"/>
<path d="M142.15 65.9653V81.8377H140.786L130.651 68.9385V81.8377H128.97V65.9653H130.333L140.468 78.8645V65.9653H142.15Z" fill="#FF7F03"/>
<path d="M146.74 65.9653H148.422V81.8377H146.74V65.9653Z" fill="#FF7F03"/>
<path d="M151.604 73.9244C151.604 69.2588 155.103 65.8281 159.875 65.8281C162.148 65.8281 164.238 66.6057 165.647 68.161L164.602 69.213C163.329 67.8865 161.739 67.3376 159.966 67.3376C156.148 67.3376 153.331 70.1736 153.331 73.9244C153.331 77.6752 156.194 80.5112 159.966 80.5112C161.784 80.5112 163.329 79.9623 164.602 78.5901L165.647 79.6421C164.238 81.1974 162.193 81.975 159.875 81.975C155.148 82.0207 151.604 78.5901 151.604 73.9244Z" fill="#FF7F03"/>
<path d="M0.350586 73.8788C0.350586 69.1674 4.12281 65.7368 9.1676 65.7368C11.8491 65.7368 14.1669 66.6516 15.7122 68.3898L13.7579 70.1738C12.6217 68.9845 11.031 68.2984 9.34939 68.2984C5.9862 68.2984 3.48653 70.6312 3.48653 73.8788C3.48653 77.1265 5.9862 79.4593 9.34939 79.4593C11.031 79.4593 12.6671 78.7732 13.7579 77.5382L15.7122 79.3679C14.1669 81.106 11.8491 82.0209 9.1676 82.0209C4.12281 82.0209 0.350586 78.636 0.350586 73.8788Z" fill="#FF7F03"/>
<path d="M28.8924 81.8377L25.5746 77.1721H21.2116V81.8377H18.1665V65.9653H24.8929C29.2105 65.9653 31.892 68.1152 31.892 71.6373C31.9829 73.8787 30.574 75.8913 28.3924 76.6232L32.1647 81.8377H28.8924ZM24.7565 68.4354H21.2116V74.7477H24.7565C27.438 74.7477 28.8469 73.5585 28.8469 71.5916C28.8469 69.6247 27.438 68.4354 24.7565 68.4354Z" fill="#FF7F03"/>
<path d="M33.6646 73.8788C33.6646 69.2132 37.4368 65.7368 42.527 65.7368C47.6173 65.7368 51.3895 69.2132 51.3895 73.8788C51.3895 78.5445 47.6173 82.0209 42.527 82.0209C37.3913 82.0209 33.6646 78.5902 33.6646 73.8788ZM48.2535 73.8788C48.2535 70.8141 45.663 68.2984 42.4816 68.2984C39.3002 68.2984 36.7096 70.8141 36.7096 73.8788C36.7096 76.9435 39.3002 79.4593 42.4816 79.4593C45.663 79.4593 48.2535 76.9893 48.2535 73.8788Z" fill="#FF7F03"/>
<path d="M77.6134 65.9653L72.1595 81.8377H68.9327L64.8878 70.0821L60.7065 81.8377H57.4797L52.0713 65.9653H55.2072L59.2976 78.0412L63.5243 65.9653H66.3876L70.5234 78.0869L74.7047 65.9653H77.6134Z" fill="#FF7F03"/>
<path d="M79.6128 65.9653H86.7937C92.1111 65.9653 95.7016 69.1215 95.7016 73.8787C95.7016 78.6358 92.0657 81.792 86.7937 81.792H79.6128V65.9653ZM86.6573 79.3219C90.2932 79.3219 92.6565 77.1721 92.6565 73.8787C92.6565 70.5852 90.2932 68.4354 86.6573 68.4354H82.6124V79.3219H86.6573Z" fill="#FF7F03"/>
</svg>
