<svg width="49" height="48" viewBox="0 0 49 48" fill="none" xmlns="http://www.w3.org/2000/svg">
<rect x="0.666504" width="48" height="48" rx="24" fill="#FFF4D3"/>
<path d="M24.6665 34C30.1894 34 34.6665 29.5228 34.6665 24C34.6665 18.4772 30.1894 14 24.6665 14C19.1437 14 14.6665 18.4772 14.6665 24C14.6665 29.5228 19.1437 34 24.6665 34Z" stroke="#FF7F03" stroke-width="2" stroke-linecap="round" stroke-linejoin="round"/>
<path d="M24.6665 30C27.9802 30 30.6665 27.3137 30.6665 24C30.6665 20.6863 27.9802 18 24.6665 18C21.3528 18 18.6665 20.6863 18.6665 24C18.6665 27.3137 21.3528 30 24.6665 30Z" stroke="#FF7F03" stroke-width="2" stroke-linecap="round" stroke-linejoin="round"/>
<path d="M24.6665 26C25.7711 26 26.6665 25.1046 26.6665 24C26.6665 22.8954 25.7711 22 24.6665 22C23.5619 22 22.6665 22.8954 22.6665 24C22.6665 25.1046 23.5619 26 24.6665 26Z" stroke="#FF7F03" stroke-width="2" stroke-linecap="round" stroke-linejoin="round"/>
</svg>
