<svg width="49" height="48" viewBox="0 0 49 48" fill="none" xmlns="http://www.w3.org/2000/svg">
<rect x="0.333496" width="48" height="48" rx="24" fill="#FFF4D3"/>
<g clip-path="url(#clip0_910_43271)">
<path d="M28.3335 33V31C28.3335 29.9391 27.9121 28.9217 27.1619 28.1716C26.4118 27.4214 25.3944 27 24.3335 27H17.3335C16.2726 27 15.2552 27.4214 14.5051 28.1716C13.7549 28.9217 13.3335 29.9391 13.3335 31V33M29.3335 23L31.3335 25L35.3335 21M24.8335 19C24.8335 21.2091 23.0426 23 20.8335 23C18.6244 23 16.8335 21.2091 16.8335 19C16.8335 16.7909 18.6244 15 20.8335 15C23.0426 15 24.8335 16.7909 24.8335 19Z" stroke="#FF7F03" stroke-width="2" stroke-linecap="round" stroke-linejoin="round"/>
</g>
<defs>
<clipPath id="clip0_910_43271">
<rect width="24" height="24" fill="white" transform="translate(12.3335 12)"/>
</clipPath>
</defs>
</svg>
