<svg width="49" height="48" viewBox="0 0 49 48" fill="none" xmlns="http://www.w3.org/2000/svg">
<rect x="0.666504" width="48" height="48" rx="24" fill="#FFF4D3"/>
<path d="M24.6665 32H33.6665M29.1665 15.5C29.5643 15.1022 30.1039 14.8787 30.6665 14.8787C30.9451 14.8787 31.2209 14.9335 31.4783 15.0401C31.7357 15.1467 31.9695 15.303 32.1665 15.5C32.3635 15.697 32.5197 15.9308 32.6263 16.1882C32.733 16.4456 32.7878 16.7214 32.7878 17C32.7878 17.2786 32.733 17.5544 32.6263 17.8118C32.5197 18.0691 32.3635 18.303 32.1665 18.5L19.6665 31L15.6665 32L16.6665 28L29.1665 15.5Z" stroke="#FF7F03" stroke-width="2" stroke-linecap="round" stroke-linejoin="round"/>
</svg>
