<svg width="36" height="36" viewBox="0 0 36 36" fill="none" xmlns="http://www.w3.org/2000/svg">
<rect x="2" y="2" width="32" height="32" rx="16" fill="#FFF4D3"/>
<path d="M18.6665 11.3333H13.9998C13.6462 11.3333 13.3071 11.4738 13.057 11.7239C12.807 11.9739 12.6665 12.3131 12.6665 12.6667V23.3333C12.6665 23.687 12.807 24.0261 13.057 24.2762C13.3071 24.5262 13.6462 24.6667 13.9998 24.6667H21.9998C22.3535 24.6667 22.6926 24.5262 22.9426 24.2762C23.1927 24.0261 23.3332 23.687 23.3332 23.3333V16M18.6665 11.3333L23.3332 16M18.6665 11.3333V16H23.3332" stroke="#FF7F03" stroke-width="1.33333" stroke-linecap="round" stroke-linejoin="round"/>
<rect x="2" y="2" width="32" height="32" rx="16" stroke="#FFFAEC" stroke-width="4"/>
</svg>
