<svg width="195" height="42" viewBox="0 0 195 42" fill="none" xmlns="http://www.w3.org/2000/svg">
<path d="M37.77 20.808C37.77 29.904 30.402 37.272 21.306 37.272C12.21 37.272 4.84205 29.904 4.84205 20.808C4.84205 11.712 12.21 4.34396 21.306 4.34396C21.33 4.34396 21.354 4.34396 21.378 4.34396V0.0119629C21.354 0.0119629 21.33 0.0119629 21.306 0.0119629C9.81005 0.0119629 0.498047 9.32396 0.498047 20.82C0.498047 32.316 9.81005 41.628 21.306 41.628C32.802 41.628 42.114 32.304 42.114 20.808C42.114 20.784 42.114 20.76 42.114 20.736H37.782C37.77 20.76 37.77 20.784 37.77 20.808Z" fill="white"/>
<path d="M17.9704 15.8281C17.9584 15.8401 17.9464 15.8521 17.9344 15.8521C17.8264 15.9361 17.7064 16.0201 17.5984 16.1041C16.2064 17.1961 15.3184 18.9001 15.3184 20.8081C15.3184 24.1201 18.0064 26.8081 21.3184 26.8081C24.6304 26.8081 27.3184 24.1201 27.3184 20.8081C27.3184 20.7961 27.3184 20.7961 27.3184 20.7841V20.7721V14.7841H21.0064C20.9824 14.7841 19.4344 14.8321 17.9704 15.8281ZM23.4424 18.6721V20.6881H23.4304C23.4304 20.7241 23.4424 20.7721 23.4424 20.8081C23.4424 21.9841 22.4824 22.9441 21.3064 22.9441C20.1304 22.9441 19.1704 21.9841 19.1704 20.8081C19.1704 19.6321 20.1304 18.6721 21.3064 18.6721C21.3304 18.6721 21.3544 18.6841 21.3784 18.6841H23.4424V18.6721Z" fill="white"/>
<path d="M24.2705 4.356H37.7465V17.844H42.1145V0H24.2705V4.356Z" fill="white"/>
<path d="M140.715 15.3768H136.064V14.157H146.738V15.3768H142.087V27.384H140.677V15.3768H140.715Z" fill="white"/>
<path d="M147.195 20.7896C147.195 16.9397 150.13 14.0427 154.133 14.0427C158.097 14.0427 161.07 16.9016 161.07 20.7896C161.07 24.6777 158.097 27.5366 154.133 27.5366C150.13 27.5366 147.195 24.6396 147.195 20.7896ZM159.66 20.7896C159.66 17.6258 157.297 15.3006 154.133 15.3006C150.931 15.3006 148.568 17.6258 148.568 20.7896C148.568 23.9534 150.931 26.2786 154.133 26.2786C157.297 26.2786 159.66 23.9534 159.66 20.7896Z" fill="white"/>
<path d="M174.793 14.157V27.384H173.649L165.149 16.6347V27.384H163.738V14.157H164.882L173.382 24.9063V14.157H174.793Z" fill="white"/>
<path d="M178.643 14.157H180.053V27.384H178.643V14.157Z" fill="white"/>
<path d="M182.722 20.7896C182.722 16.9016 185.657 14.0427 189.659 14.0427C191.565 14.0427 193.319 14.6907 194.5 15.9868L193.623 16.8635C192.556 15.758 191.222 15.3006 189.735 15.3006C186.533 15.3006 184.17 17.664 184.17 20.7896C184.17 23.9153 186.572 26.2786 189.735 26.2786C191.26 26.2786 192.556 25.8212 193.623 24.6777L194.5 25.5544C193.319 26.8504 191.603 27.4984 189.659 27.4984C185.695 27.5365 182.722 24.6777 182.722 20.7896Z" fill="white"/>
<path d="M55.8643 20.7516C55.8643 16.8254 59.0281 13.9666 63.2592 13.9666C65.5081 13.9666 67.4522 14.7289 68.7482 16.1774L67.1091 17.664C66.1562 16.6729 64.822 16.1012 63.4116 16.1012C60.5909 16.1012 58.4944 18.0452 58.4944 20.7516C58.4944 23.458 60.5909 25.402 63.4116 25.402C64.822 25.402 66.1943 24.8302 67.1091 23.801L68.7482 25.3258C67.4522 26.7742 65.5081 27.5366 63.2592 27.5366C59.0281 27.5366 55.8643 24.7159 55.8643 20.7516Z" fill="white"/>
<path d="M79.8025 27.384L77.0199 23.4959H73.3606V27.384H70.8066V14.157H76.4481C80.0694 14.157 82.3183 15.9485 82.3183 18.8836C82.3946 20.7514 81.2129 22.4286 79.3832 23.0385L82.547 27.384H79.8025ZM76.3338 16.2154H73.3606V21.4757H76.3338C78.5827 21.4757 79.7644 20.4846 79.7644 18.8455C79.7644 17.2064 78.5827 16.2154 76.3338 16.2154Z" fill="white"/>
<path d="M83.8047 20.7515C83.8047 16.8634 86.9685 13.9664 91.2377 13.9664C95.507 13.9664 98.6708 16.8634 98.6708 20.7515C98.6708 24.6395 95.507 27.5365 91.2377 27.5365C86.9304 27.5365 83.8047 24.6776 83.8047 20.7515ZM96.0406 20.7515C96.0406 18.1975 93.8679 16.101 91.1996 16.101C88.5313 16.101 86.3586 18.1975 86.3586 20.7515C86.3586 23.3054 88.5313 25.4019 91.1996 25.4019C93.8679 25.4019 96.0406 23.3435 96.0406 20.7515Z" fill="white"/>
<path d="M120.666 14.157L116.091 27.384H113.385L109.992 17.5876L106.486 27.384H103.779L99.2432 14.157H101.873L105.304 24.2202L108.849 14.157H111.25L114.719 24.2583L118.226 14.157H120.666Z" fill="white"/>
<path d="M122.342 14.157H128.364C132.824 14.157 135.836 16.7871 135.836 20.7514C135.836 24.7157 132.786 27.3459 128.364 27.3459H122.342V14.157ZM128.25 25.2875C131.3 25.2875 133.282 23.4959 133.282 20.7514C133.282 18.0069 131.3 16.2154 128.25 16.2154H124.858V25.2875H128.25Z" fill="white"/>
</svg>
